<svg width="121" height="27" viewBox="0 0 121 27" fill="none" xmlns="http://www.w3.org/2000/svg">
<g clip-path="url(#clip0_680_506)">
<mask id="mask0_680_506" style="mask-type:luminance" maskUnits="userSpaceOnUse" x="-8" y="0" width="129" height="27">
<path d="M120.667 0H-7.33325V26.6667H120.667V0Z" fill="white"/>
</mask>
<g mask="url(#mask0_680_506)">
<path d="M4.42287 6.00141C4.34896 5.90395 4.26487 5.85254 4.17113 5.85254C4.10215 5.85529 4.03533 5.87737 3.97831 5.91626C3.26808 6.47423 2.29647 8.83621 1.5 11.9495L2.20488 11.9575C3.59748 11.973 5.03508 11.9896 6.45667 12.011C6.08173 10.5851 5.72764 9.36311 5.40305 8.37623C4.92849 6.93474 4.6082 6.28895 4.42287 6.00141Z" fill="#060B13"/>
<path d="M6.00418 0C-1.36168 0 -7.33276 5.96948 -7.33276 13.3333C-7.33276 20.6972 -1.36168 26.6667 6.00418 26.6667C13.3699 26.6667 19.341 20.6972 19.341 13.3333C19.341 5.96948 13.3694 0 6.00418 0ZM15.5917 13.5753L15.5885 13.578C15.5741 13.5899 15.5595 13.6005 15.5441 13.6112L15.529 13.6215L15.4979 13.6401L15.4691 13.6568C15.3678 13.7099 15.2551 13.7376 15.1407 13.7376H8.82365C8.87405 13.9469 8.93072 14.1848 8.98912 14.4433C9.33512 15.9389 10.2554 19.9116 11.2323 19.9116H11.2533H11.2639H11.2827C12.0459 19.9116 12.4353 18.8085 13.2891 16.3915L13.2993 16.362C13.4363 15.9737 13.5911 15.5357 13.7589 15.0725L13.8017 14.9543C13.827 14.8875 13.8749 14.8316 13.9371 14.7964C13.9993 14.7612 14.0718 14.7489 14.1422 14.7616C14.2125 14.7744 14.2762 14.8113 14.3221 14.866C14.3679 14.9208 14.3933 14.9899 14.3935 15.0613C14.3934 15.0911 14.3891 15.1207 14.3807 15.1491L14.3454 15.268C14.2565 15.5556 14.1617 15.9475 14.0523 16.4011C13.5435 18.5092 12.7749 21.6943 10.8027 21.6943H10.7883C9.51405 21.6841 8.75299 19.6476 8.42565 18.778C7.81672 17.1519 7.35445 15.4191 6.91152 13.7408H1.09467L-0.112628 17.6011L-0.130295 17.5872C-0.201361 17.6992 -0.306855 17.7853 -0.430975 17.8324C-0.555095 17.8795 -0.691134 17.8851 -0.818707 17.8484C-0.946268 17.8116 -1.05848 17.7345 -1.13852 17.6287C-1.21855 17.5228 -1.26208 17.3937 -1.2626 17.2611V17.2401L-1.18975 16.8032C-1.02317 15.8104 -0.823388 14.7801 -0.595215 13.7387H-3.04781L-3.05692 13.7296C-3.27585 13.6959 -3.47556 13.5851 -3.62001 13.4172C-3.76448 13.2493 -3.8442 13.0354 -3.84481 12.8139C-3.846 12.5975 -3.77083 12.3876 -3.63251 12.2211C-3.49417 12.0546 -3.30156 11.9422 -3.08852 11.9036C-2.99317 11.8935 -2.89729 11.8894 -2.80143 11.8913C-2.76608 11.8913 -2.72644 11.8913 -2.68199 11.8913C-1.90373 11.9047 -1.07513 11.917 -0.172081 11.9288C1.10965 6.72183 2.59439 4.07872 4.24141 4.07121C6.00899 4.07121 7.31965 8.09371 8.36885 12.0289L8.37312 12.0444C10.529 12.0878 12.8269 12.1515 15.0609 12.3122L15.1546 12.3207C15.1906 12.3214 15.2263 12.3246 15.2618 12.3304H15.2746L15.2859 12.3331H15.2918C15.423 12.3597 15.5439 12.423 15.6405 12.5157C15.7371 12.6083 15.8054 12.7265 15.8374 12.8565C15.8694 12.9864 15.8638 13.1228 15.8213 13.2497C15.7787 13.3765 15.701 13.4888 15.5971 13.5732L15.5917 13.5753Z" fill="#060B13"/>
<path d="M26.7419 16.6686L25.6845 19.2807H22.6128L28.4575 5.6416H31.1704L36.9947 19.2813H33.9416L32.8843 16.6691L26.7419 16.6686ZM29.7949 9.09114L27.8003 14.0566H31.8292L29.7949 9.09114Z" fill="#060B13"/>
<path d="M54.3075 14.0373V19.2818H51.5353V14.2768C51.5353 12.7613 50.7971 11.9437 49.4999 11.9437C48.9214 11.9437 48.283 12.2028 47.7045 13.0007C47.7518 13.3444 47.7785 13.6905 47.7843 14.0373V19.2818H45.013V14.2768C45.013 12.7613 44.2749 11.9437 42.9583 11.9437C42.4227 11.9437 41.8213 12.2649 41.2631 13.0205V19.2818H38.4907V9.73H41.2631V10.3083C41.8614 9.74981 42.4998 9.43066 43.6166 9.43066C44.8335 9.43066 45.9102 9.90938 46.6697 10.7865C47.6873 9.84941 48.6445 9.43066 50.1405 9.43066C52.4726 9.43066 54.3075 11.2454 54.3075 14.0373Z" fill="#060B13"/>
<path d="M66.4943 14.5155C66.4943 17.2871 64.3803 19.4804 61.7471 19.4804C60.67 19.4804 59.7723 19.2015 59.0349 18.7227V23.8874H56.2625V9.72946H59.0349V10.288C59.7729 9.80925 60.6706 9.53027 61.7471 9.53027C64.3798 9.53081 66.4943 11.7043 66.4943 14.5155ZM63.7627 14.5155C63.7627 13.0997 62.7258 11.8633 61.2893 11.8633C60.4714 11.8633 59.6534 12.1423 59.0354 12.9798V16.032C59.6534 16.8496 60.4714 17.1287 61.2893 17.1287C62.7263 17.1271 63.7627 15.9115 63.7627 14.5155Z" fill="#060B13"/>
<path d="M70.8217 19.2815H68.0496V5.12402H70.8217V19.2815Z" fill="#060B13"/>
<path d="M73.3154 6.36093C73.3154 5.42385 74.0534 4.72559 74.9908 4.72559C75.9082 4.72559 76.6462 5.42171 76.6462 6.36093C76.6462 7.2782 75.9082 7.95612 74.9908 7.95612C74.0534 7.95612 73.3154 7.2782 73.3154 6.36093ZM76.387 9.73068V19.2824H73.6148V9.73068H76.387Z" fill="#060B13"/>
<path d="M86.4593 19.1422C85.3024 19.501 84.7839 19.5809 83.8884 19.5809C81.5745 19.5809 80.0588 17.9454 80.0588 15.4732V12.0633H78.0449V9.73022H80.0593V6.32031H82.8119V9.73022H86.2623V12.0633H82.8119V15.4534C82.8119 16.5302 83.4701 17.0288 84.4872 17.0288C85.0057 17.0288 85.5643 16.9093 86.1025 16.7696L86.4593 19.1422Z" fill="#060B13"/>
<path d="M97.589 19.2818H94.8166V18.6038C94.0389 19.2218 93.161 19.5811 92.085 19.5811C89.5718 19.5811 87.8965 17.7663 87.8965 14.9947V9.73047H90.6688V14.7355C90.6688 16.251 91.4268 17.0686 92.7234 17.0686C93.4197 17.0686 94.1793 16.6499 94.8177 15.8723V9.73047H97.5901L97.589 19.2818Z" fill="#060B13"/>
<path d="M109.358 19.2814H106.585V18.7229C105.847 19.2017 104.95 19.4806 103.873 19.4806C101.239 19.4806 99.1055 17.3071 99.1055 14.4954C99.1055 11.7237 101.24 9.5299 103.873 9.5299C104.95 9.5299 105.847 9.80889 106.585 10.2876V5.12402H109.358V19.2814ZM106.585 16.0317V12.9794C105.967 12.1618 105.149 11.8828 104.331 11.8828C102.875 11.8828 101.857 13.0994 101.857 14.4949C101.857 15.9106 102.875 17.147 104.331 17.147C105.147 17.1481 105.967 16.8691 106.585 16.0317Z" fill="#060B13"/>
<path d="M120.607 15.214H113.566C113.786 16.3305 114.524 17.2081 116.04 17.2081C116.817 17.2081 117.356 16.9688 117.655 16.4901H120.548C120.029 18.3246 118.234 19.5808 115.98 19.5808C112.908 19.5808 110.833 17.3677 110.833 14.5157C110.833 11.5647 112.888 9.42871 115.9 9.42871C118.632 9.42871 120.667 11.3628 120.667 14.3144C120.671 14.6154 120.651 14.9162 120.607 15.214ZM113.586 13.5786H117.915C117.754 12.3824 117.037 11.7243 115.92 11.7243C114.583 11.7243 113.845 12.5018 113.586 13.5786Z" fill="#060B13"/>
</g>
</g>
<defs>
<clipPath id="clip0_680_506">
<rect width="128" height="26.6667" fill="white" transform="translate(-7.33325)"/>
</clipPath>
</defs>
</svg>
