<svg width="148" height="25" viewBox="0 0 148 25" fill="none" xmlns="http://www.w3.org/2000/svg">
<mask id="mask0_680_527" style="mask-type:luminance" maskUnits="userSpaceOnUse" x="0" y="0" width="148" height="25">
<path d="M147.334 0.345703H0.666992V24.279H147.334V0.345703Z" fill="white"/>
</mask>
<g mask="url(#mask0_680_527)">
<path fill-rule="evenodd" clip-rule="evenodd" d="M30.6041 0.365177L0.860103 12.2119C0.800402 12.2367 0.750564 12.2806 0.718337 12.3367C0.684565 12.3875 0.666691 12.4471 0.667008 12.5081C0.666388 12.5691 0.684288 12.6288 0.718337 12.6794C0.752562 12.731 0.802179 12.7704 0.860103 12.792L9.69114 15.9814C9.7384 16.0004 9.78991 16.0062 9.84024 15.9984C9.88963 15.9906 9.93651 15.9713 9.97712 15.9422L26.73 3.71848C26.7341 3.71667 26.7388 3.71573 26.7434 3.71573C26.7481 3.71573 26.7526 3.71667 26.7569 3.71848C26.7662 3.72098 26.7747 3.72607 26.7813 3.73317C26.7829 3.73705 26.7837 3.74121 26.7837 3.74541C26.7837 3.74961 26.7829 3.75377 26.7813 3.75764C26.7847 3.76631 26.7847 3.77592 26.7813 3.78457L11.9521 16.701C11.9179 16.7308 11.8904 16.7674 11.8714 16.8087C11.8536 16.8503 11.8453 16.8955 11.847 16.9408V23.8188C11.8452 23.881 11.8641 23.9422 11.9007 23.9926C11.9374 24.0437 11.9884 24.0829 12.0474 24.1051C12.1064 24.1262 12.1705 24.128 12.2306 24.1103C12.2907 24.0928 12.3438 24.0568 12.3822 24.0073L16.6622 18.7252C16.702 18.6768 16.7557 18.6418 16.816 18.6248C16.8765 18.6052 16.9415 18.6052 17.0019 18.6248L22.4575 20.605C22.5295 20.6343 22.6103 20.6343 22.6823 20.605C22.7532 20.5724 22.8096 20.5149 22.8412 20.4434L31.0001 0.761701C31.0219 0.707332 31.027 0.647661 31.0147 0.590364C31.0044 0.531826 30.9763 0.477934 30.9341 0.43616C30.8932 0.393037 30.8404 0.363208 30.7824 0.350549C30.7244 0.33789 30.6641 0.342987 30.609 0.365177" fill="#060B13"/>
<path d="M40.0047 2.75293H37.3159L37.3551 19.1523H40.0438L40.0047 2.75293Z" fill="#060B13"/>
<path d="M48.4692 7.35156C47.1102 7.35156 45.8661 7.84109 45.0864 8.82016V7.59633H42.5518L42.5811 19.1494H45.1157L45.0961 11.5004C45.3326 10.9484 45.7278 10.4794 46.2316 10.1533C46.7352 9.82724 47.3244 9.65881 47.9241 9.66951C49.5373 9.66951 50.4613 10.8175 50.4662 12.6434L50.4809 19.1494H53.0155L52.9985 12.2396C52.9985 9.2534 51.2337 7.36135 48.4692 7.36869" fill="#060B13"/>
<path d="M63.4865 7.54641L59.9767 15.6433L56.4545 7.56599H53.6436L58.8793 19.1067H61.1156L66.3147 7.53906L63.4865 7.54641Z" fill="#060B13"/>
<path d="M72.6061 7.29487C71.1289 7.31937 69.7136 7.89265 68.6348 8.9034C67.5561 9.91415 66.891 11.2903 66.7686 12.7645C66.646 14.2388 67.0751 15.7061 67.9722 16.8815C68.8694 18.0568 70.1705 18.8563 71.6233 19.1249C73.0761 19.3935 74.5766 19.1118 75.8338 18.3347C77.0908 17.5576 78.0146 16.3405 78.4259 14.9195C78.837 13.4986 78.7064 11.9754 78.0591 10.6455C77.4118 9.31572 76.2941 8.2742 74.9231 7.72321C74.1872 7.42651 73.3993 7.28087 72.6061 7.29487ZM72.6281 16.9534C70.5798 16.9534 69.145 15.3673 69.1425 13.3112C69.1401 11.2552 70.5553 9.65688 72.6109 9.63975C74.6666 9.62261 76.072 11.2283 76.0768 13.2843C76.0818 15.3403 74.6567 16.9362 72.6354 16.9412L72.6281 16.9534Z" fill="#060B13"/>
<path d="M82.9943 7.49121H80.4595L80.4912 19.0442H83.0236L82.9943 7.49121Z" fill="#060B13"/>
<path d="M82.9943 3.03613H80.4595V5.38141H82.9943V3.03613Z" fill="#060B13"/>
<path d="M91.0745 9.60508C91.7403 9.60044 92.3931 9.78917 92.9541 10.1484C93.515 10.5077 93.9599 11.0221 94.2349 11.6293L96.4347 10.425C95.9194 9.44891 95.1442 8.63482 94.195 8.07312C93.2458 7.51143 92.1597 7.22413 91.0574 7.24307C87.6109 7.24797 84.9956 9.84984 84.9956 13.2741C84.9956 16.6984 87.6476 19.2733 91.1062 19.2686C92.2083 19.2838 93.293 18.9924 94.2395 18.4267C95.1859 17.861 95.9568 17.0432 96.4664 16.0645L94.2519 14.8602C93.9809 15.4697 93.5388 15.9871 92.9795 16.3496C92.4201 16.712 91.7676 16.9038 91.1014 16.9015C89.053 16.9015 87.5962 15.3155 87.5915 13.2595C87.5865 11.2034 89.036 9.60508 91.0868 9.58795" fill="#060B13"/>
<path d="M103.792 7.21387C100.289 7.21387 97.774 9.84267 97.7936 13.24C97.7936 16.7426 100.321 19.2417 103.816 19.2344C106.224 19.2344 108.032 18.1819 109.061 16.5419L107.135 15.1615C106.539 16.1772 105.451 16.9214 103.846 16.9262C101.934 16.9262 100.409 15.6852 100.289 13.7908L109.333 13.7687C109.355 13.4016 109.355 13.1911 109.355 12.9365C109.355 9.22096 106.805 7.21632 103.789 7.22121L103.792 7.21387ZM100.394 11.9379C100.736 10.2245 102.227 9.36537 103.706 9.36537C105.185 9.36537 106.517 10.2588 106.798 11.9207L100.394 11.9379Z" fill="#060B13"/>
<path d="M141.333 7.12421H141.242C140.454 7.11801 139.673 7.26881 138.944 7.5678C138.214 7.8668 137.552 8.30802 136.994 8.86582C136.437 9.42362 135.996 10.0868 135.696 10.8169C135.397 11.547 135.246 12.3294 135.252 13.1185V13.1504C135.247 13.9414 135.399 14.7255 135.7 15.4567C136.002 16.188 136.445 16.8519 137.005 17.4095C137.566 17.9672 138.231 18.4074 138.963 18.7045C139.696 19.0016 140.48 19.1496 141.269 19.1398H141.313C142.103 19.1508 142.886 19.0035 143.618 18.7067C144.349 18.41 145.014 17.9697 145.574 17.4118C146.133 16.8544 146.575 16.1912 146.876 15.4609C147.176 14.7305 147.328 13.9476 147.324 13.1577V13.1185C147.328 12.3306 147.176 11.5495 146.877 10.8209C146.577 10.0922 146.136 9.43054 145.579 8.87429C145.022 8.317 144.36 7.87615 143.632 7.57737C142.903 7.27861 142.122 7.12789 141.335 7.13399L141.333 7.12421ZM141.304 16.7925C139.253 16.7925 137.823 15.2064 137.818 13.1528C137.813 11.0992 139.238 9.496 141.284 9.48131C143.33 9.46662 144.745 11.0698 144.75 13.1259C144.755 15.1819 143.33 16.7779 141.304 16.7826V16.7925Z" fill="#060B13"/>
<path d="M130.864 7.37998V8.44226C130.055 7.61251 128.855 7.15478 127.474 7.15724C124.135 7.15724 121.72 9.73219 121.696 12.9729C121.68 13.7396 121.819 14.5017 122.104 15.2133C122.39 15.9249 122.816 16.5714 123.358 17.1138C123.899 17.6563 124.544 18.0837 125.254 18.3703C125.965 18.6568 126.726 18.7966 127.491 18.7812C128.877 18.7812 130.073 18.2918 130.877 17.4326V18.8008C130.877 20.5998 129.899 21.5618 128.574 21.8554C125.274 22.4478 123.224 21.4516 123.224 21.4516L122.415 23.5273C123.593 24.2616 127.247 24.4721 128.943 24.0975C131.387 23.6667 133.421 22.0661 133.414 18.8228L133.392 7.37753L130.864 7.37998ZM130.881 14.8209C130.554 15.3382 130.097 15.7605 129.556 16.0453C129.015 16.3301 128.408 16.4675 127.797 16.4437C125.795 16.4437 124.338 14.9506 124.314 12.9656C124.301 12.5039 124.385 12.0447 124.558 11.6169C124.727 11.1881 124.982 10.7984 125.306 10.4714C125.631 10.1444 126.018 9.88677 126.445 9.71426C126.872 9.54174 127.329 9.45792 127.789 9.46784C128.397 9.44366 129.001 9.57696 129.542 9.85482C130.083 10.1327 130.544 10.5457 130.879 11.0539L130.881 14.8209Z" fill="#060B13"/>
<path d="M114.068 16.7928L117.524 12.0932C118.22 11.1803 119.332 9.64557 119.54 9.31024C120.503 7.7168 120.621 6.0426 119.785 4.37084C119.103 3.00994 117.898 2.34661 116.414 2.16793C114.334 1.90359 112.171 2.86797 111.193 4.84079C110.966 5.27024 110.817 5.73691 110.753 6.21883L112.97 6.70837C113.004 6.6129 113.036 6.53458 113.058 6.46359C113.163 6.0603 113.358 5.68582 113.627 5.3677C113.896 5.04956 114.233 4.79592 114.613 4.62539C115.422 4.2558 116.583 4.40021 117.208 4.94115C118.257 5.85413 118.242 7.38882 117.482 8.36789C117.355 8.53433 110.795 16.9053 110.795 16.9053C110.733 16.9784 110.7 17.0716 110.702 17.1672V19.0201L120.437 18.9957V16.7928H114.068Z" fill="#060B13"/>
</g>
</svg>
