<svg width="150" height="17" viewBox="0 0 150 17" fill="none" xmlns="http://www.w3.org/2000/svg">
<g clip-path="url(#clip0_680_546)">
<mask id="mask0_680_546" style="mask-type:luminance" maskUnits="userSpaceOnUse" x="0" y="0" width="151" height="17">
<path d="M150 0.333984H0.666992V16.334H150V0.333984Z" fill="white"/>
</mask>
<g mask="url(#mask0_680_546)">
<path d="M0.836947 0.778232C1.1892 0.164943 2.0063 0.328369 2.54922 0.577903C6.48759 2.21216 10.4114 3.8886 14.3299 5.5668C15.3286 5.84446 14.8746 7.01304 14.8746 7.74231C12.7138 7.76516 10.5513 7.74232 8.38868 7.7599C7.7913 7.73528 7.08134 7.86182 6.63103 7.37856C4.8534 5.7443 3.13751 4.03974 1.39983 2.37208C0.991287 1.96439 0.392087 1.3634 0.844211 0.778232H0.836947ZM26.579 1.44248C27.5304 1.0717 28.4402 0.563844 29.4496 0.351213C30.0815 0.221175 30.3575 0.857309 30.6662 1.24918C29.3298 3.16286 27.4087 4.588 25.7819 6.26444C25.0755 6.87071 24.4546 7.87587 23.3759 7.75814C21.0427 7.75814 18.7095 7.74407 16.3726 7.75814C16.2236 7.08158 15.8532 6.01316 16.7176 5.6494C19.9859 4.2225 23.2888 2.83776 26.579 1.44775V1.44248ZM45.9078 1.72892C46.0892 1.30014 46.5923 1.46181 46.9572 1.41788C50.1639 1.43721 53.3687 1.41788 56.5807 1.43018C58.578 1.46181 60.4083 3.01172 60.6643 4.93243C61.0547 7.14484 59.1755 9.43984 56.8512 9.54002C54.1131 9.59624 51.3714 9.50311 48.635 9.57516C48.1011 10.981 48.7184 12.6346 48.3227 14.1072C47.6091 14.6344 46.7938 15.1704 45.8604 15.209C45.8604 12.7716 45.8859 10.3326 45.8732 7.8952C45.8406 7.55956 45.9222 6.99372 46.4179 7.0851C49.728 7.04292 53.0418 7.10443 56.3519 7.06576C57.1654 7.1097 58.0388 6.51574 58.066 5.68806C58.2476 4.72331 57.3398 3.87104 56.3664 3.90443C52.9166 3.84292 49.4666 3.96242 46.0348 3.85347C45.7698 3.18219 45.8532 2.43183 45.915 1.72892H45.9078ZM75.4264 15.1966C75.4102 10.6067 75.3556 6.01316 75.4555 1.42491C80.4071 1.44248 85.3642 1.38801 90.3156 1.45127C90.0488 2.30706 89.7111 3.28762 88.9648 3.83764C85.3132 3.96768 81.6418 3.8605 77.9831 3.88686C77.9631 4.94122 77.965 6.01667 77.9703 7.08334C81.5438 7.07279 85.1184 7.07279 88.6942 7.08334C88.7451 7.90047 88.7468 8.72288 88.7196 9.54352C85.1354 9.57867 81.5547 9.54352 77.9703 9.5611C77.9703 10.6155 77.9703 11.6698 77.9703 12.7242C81.4203 12.7119 84.8575 12.7242 88.3002 12.7242C89.5712 12.6504 89.7855 14.1897 90.4011 14.9665C90.0728 15.1573 89.694 15.2508 89.3116 15.2353C84.6832 15.216 80.0512 15.26 75.4247 15.2125L75.4264 15.1966ZM105.005 1.52683C105.368 1.16132 105.717 1.69202 106.042 1.83259C109.9 4.71102 113.781 7.5578 117.63 10.4433C117.686 7.87939 117.557 5.31024 117.686 2.7534C118.264 2.02942 119.21 1.67971 120.071 1.35989C120.265 1.88707 120.225 2.45291 120.23 3.00294C120.194 6.93924 120.256 10.8808 120.201 14.8172C120.341 15.4374 119.567 15.2494 119.293 14.9629C115.362 12.0476 111.447 9.10948 107.505 6.20822C107.456 8.78966 107.593 11.3799 107.447 13.9561C106.877 14.6589 105.88 15.0965 104.954 15.2458C104.914 11.162 104.954 7.07807 104.929 2.9924C104.912 2.50151 104.938 2.01014 105.005 1.52332V1.52683ZM135.056 6.6985C135.771 3.66368 138.839 1.34935 142.056 1.43545C144.597 1.48466 147.131 1.34056 149.66 1.50574C149.635 2.39668 149.052 3.16988 148.496 3.84116C146.191 4.0415 143.857 3.77263 141.549 3.96066C139.657 4.18559 137.971 5.59316 137.555 7.40316C136.879 9.86335 138.969 12.566 141.576 12.7101C143.537 12.7453 145.5 12.7101 147.463 12.7101C147.463 11.6558 147.463 10.6119 147.463 9.56286C145.997 9.54176 144.528 9.598 143.063 9.54879C142.433 9.61558 142.223 8.90739 141.931 8.50674C141.749 8.07268 141.269 7.6281 141.512 7.13254C143.895 7.00778 146.288 7.13254 148.676 7.07455C149.108 7.13079 149.671 6.93924 149.992 7.32232C150.06 9.93364 149.992 12.5502 150.016 15.1633C148.216 15.2845 146.412 15.2037 144.612 15.223C142.739 15.1966 140.752 15.4392 139.021 14.5729C135.996 13.2971 134.183 9.79306 135.065 6.69498L135.056 6.6985ZM6.57656 9.30102C7.04139 8.80547 7.77315 8.93551 8.39232 8.91091C10.5712 8.9443 12.7392 8.88279 14.9108 8.95132C14.9308 9.62084 15.3067 10.6752 14.4696 11.0144C11.0706 12.4922 7.65331 13.928 4.23787 15.3741C3.34632 15.7256 2.48022 16.2106 1.51423 16.3336C1.0276 16.1913 0.593637 15.7432 0.691688 15.2177C0.99492 14.5536 1.58504 14.0756 2.0989 13.5642C3.60779 12.1583 5.03862 10.6699 6.58564 9.30102H6.57656ZM16.3144 8.94956C18.5787 8.90739 20.8539 8.94956 23.1108 8.92146C23.583 8.95659 24.1512 8.85995 24.5163 9.2237C26.1776 10.7262 27.7628 12.3042 29.3843 13.8453C29.8019 14.2812 30.2922 14.6853 30.5191 15.2512C30.6499 16.0138 29.6839 16.6077 29.003 16.2001C24.9048 14.5658 20.8647 12.7875 16.812 11.053C15.8806 10.7437 16.22 9.65599 16.3144 8.95308" fill="#060B13"/>
</g>
</g>
<defs>
<clipPath id="clip0_680_546">
<rect width="149.333" height="16" fill="white" transform="translate(0.666992 0.333008)"/>
</clipPath>
</defs>
</svg>
