<svg width="163" height="17" viewBox="0 0 163 17" fill="none" xmlns="http://www.w3.org/2000/svg">
<g clip-path="url(#clip0_680_592)">
<path d="M16.4497 5.77403C16.4497 3.12034 14.676 0.709913 11.3133 0.690339C9.05061 0.690339 2.26265 0.667969 0 0.667969V16.0281H2.69179V10.9025H9.81264L13.9739 16.0281H17.1728V15.8324L12.8503 10.5949C15.5629 10.002 16.4601 7.87686 16.4601 5.77403H16.4497ZM2.70219 8.29071V3.38319H11.3237C13.0142 3.38319 13.7684 4.61076 13.7684 5.83835C13.7684 7.06592 13.035 8.2935 11.3237 8.2935L2.70219 8.29071Z" fill="#060B13"/>
<path d="M35.0971 0.673562C32.8553 0.673562 26.0881 0.695933 23.8462 0.695933V16.0337H26.5354V11.5148H35.0971C42.0879 11.5148 42.0671 0.667969 35.0971 0.667969V0.673562ZM35.0971 8.86395H26.5354V3.42792H35.0971C38.5197 3.42792 38.5405 8.86395 35.0971 8.86395Z" fill="#060B13"/>
<path d="M84.264 8.09785C85.5879 7.46029 86.1184 6.32219 86.1184 5.13657C86.1184 2.06062 84.0196 0.69043 81.2056 0.69043H69.9131V16.0282H81.2056C84.16 16.0282 86.5449 14.9348 86.5449 11.5149C86.5449 10.5502 85.9338 8.64313 84.264 8.09785ZM72.5607 3.31897H81.203C82.9168 3.31897 83.4448 4.50179 83.4448 5.20367C83.4448 6.07891 82.896 6.8479 81.203 6.8479H72.5633L72.5607 3.31897ZM81.203 13.3353H72.5633V9.38974H81.2056C82.3057 9.38974 83.8766 10.1112 83.8766 11.4926C83.8766 12.9383 82.3161 13.3353 81.2056 13.3353" fill="#060B13"/>
<path d="M95.6742 0.69043H92.9824V16.031H107.536V13.3549H95.6742V0.69043Z" fill="#060B13"/>
<path d="M116.664 0.69043H113.993V16.031H116.664V0.69043Z" fill="#060B13"/>
<path d="M136.833 11.7909C136.448 12.2026 136.01 12.5529 135.533 12.8312C134.996 13.1376 134.425 13.3706 133.834 13.5246C133.164 13.6975 132.475 13.7821 131.785 13.7763C130.88 13.7923 129.979 13.6448 129.119 13.3401C128.409 13.0828 127.752 12.6792 127.184 12.1516C126.676 11.6685 126.273 11.0708 126.004 10.4012C125.741 9.74785 125.606 9.04361 125.606 8.33187C125.604 7.61278 125.74 6.90097 126.004 6.24023C126.273 5.57058 126.676 4.97291 127.184 4.48974C127.752 3.96219 128.411 3.56193 129.125 3.3125C129.985 3.01413 130.884 2.87051 131.788 2.88746C132.446 2.88415 133.102 2.96109 133.744 3.11675C134.313 3.25418 134.866 3.46057 135.393 3.73195C135.866 3.97747 136.305 4.29689 136.693 4.6799C136.926 4.91535 137.138 5.17478 137.325 5.45447L139.593 4.10665C139.305 3.65947 138.974 3.24697 138.604 2.87627C138.08 2.3497 137.493 1.90023 136.86 1.53964C136.154 1.14205 135.404 0.843209 134.628 0.65041C133.742 0.433261 132.836 0.327224 131.928 0.334426C130.625 0.313007 129.328 0.534392 128.095 0.988766C127.059 1.37237 126.101 1.96561 125.273 2.73646C124.534 3.43531 123.941 4.29561 123.536 5.25998C123.13 6.22434 122.92 7.27063 122.92 8.32909C122.92 9.38753 123.13 10.4338 123.536 11.3982C123.941 12.3626 124.534 13.2228 125.273 13.9217C126.1 14.6938 127.058 15.2871 128.095 15.6694C129.322 16.1247 130.614 16.3489 131.913 16.3321C132.85 16.3403 133.784 16.2267 134.696 15.9938C135.489 15.7877 136.254 15.4709 136.972 15.0514C137.617 14.6762 138.21 14.2055 138.734 13.6533C139.114 13.2481 139.45 12.7967 139.733 12.3082L137.454 10.966C137.277 11.2694 137.069 11.5508 136.833 11.8049" fill="#060B13"/>
<path d="M58.5375 0.672853C58.235 0.672485 57.9354 0.736224 57.6559 0.860426C57.3763 0.984629 57.1223 1.16686 56.9083 1.39669C56.6942 1.62653 56.5245 1.89946 56.4086 2.1999C56.2929 2.50033 56.2333 2.82237 56.2333 3.14758H60.527V8.44099C60.4473 9.14441 60.3026 9.83757 60.0953 10.5103C59.8261 11.1799 59.423 11.7776 58.9146 12.2607C58.347 12.7889 57.6887 13.1926 56.977 13.4492C55.557 14.054 53.9758 14.054 52.5558 13.4492C51.8441 13.1926 51.1858 12.7889 50.6182 12.2607C50.1098 11.7776 49.7066 11.1799 49.4374 10.5103C49.2302 9.83757 49.0855 9.14441 49.0057 8.44099V0.672853H46.3478V8.44099C46.3415 9.49923 46.5473 10.5465 46.9513 11.5116C47.3551 12.4766 47.9477 13.3368 48.6885 14.0336C49.5173 14.8029 50.4762 15.3934 51.5129 15.7729C53.6258 16.5105 55.9017 16.5105 58.0147 15.7729C59.051 15.3906 60.0091 14.7973 60.8366 14.0252C61.5774 13.3284 62.1698 12.4682 62.5738 11.5032C62.9777 10.5381 63.1835 9.49085 63.1773 8.43261V0.672853H58.5375Z" fill="#060B13"/>
<path d="M152.669 3.2155L146.385 16.0282H143.709L151.179 0.785503V0.69043H155.148L162.667 16.0282H159.991L158.393 12.7845H153.605C153.295 12.7845 152.987 12.7186 152.699 12.5906C152.412 12.4625 152.151 12.2749 151.931 12.0383C151.711 11.8018 151.536 11.521 151.417 11.2119C151.297 10.9028 151.236 10.5716 151.236 10.237H157.14L153.689 3.2155H152.669Z" fill="#060B13"/>
</g>
<defs>
<clipPath id="clip0_680_592">
<rect width="162.667" height="16" fill="white" transform="translate(0 0.333008)"/>
</clipPath>
</defs>
</svg>
