<svg width="140" height="17" viewBox="0 0 140 17" fill="none" xmlns="http://www.w3.org/2000/svg">
<g clip-path="url(#clip0_680_574)">
<mask id="mask0_680_574" style="mask-type:luminance" maskUnits="userSpaceOnUse" x="0" y="0" width="140" height="17">
<path d="M139.334 0.333984H0.666992V16.334H139.334V0.333984Z" fill="white"/>
</mask>
<g mask="url(#mask0_680_574)">
<path d="M7.01598 16.0871L0.666992 0.581055H3.91925L8.56662 12.1488L13.2414 0.581055H16.4937L10.1127 16.0871H7.01598Z" fill="#060B13"/>
<path d="M19.2929 6.97058H28.8301C28.5538 5.92323 27.9391 4.99203 27.0782 4.31663C26.2377 3.63704 25.1801 3.26979 24.0913 3.27931C22.9739 3.2517 21.883 3.61454 21.0129 4.30316C20.1603 4.98588 19.5567 5.92199 19.2929 6.97058ZM18.3369 14.0119C17.5745 13.2773 16.9723 12.3979 16.5674 11.4275C16.1623 10.457 15.9629 9.41575 15.9811 8.36715C15.9637 7.31675 16.1601 6.27348 16.5591 5.29872C16.9582 4.32395 17.5518 3.43735 18.3049 2.69104C19.0347 1.92826 19.9195 1.32429 20.9021 0.918195C21.8846 0.512099 22.943 0.312905 24.0089 0.333477C26.0905 0.309934 28.1022 1.07001 29.6306 2.45752C30.4238 3.16572 31.0574 4.02895 31.4906 4.99178C31.9239 5.95459 32.1473 6.99574 32.1463 8.04832C32.149 8.51387 32.1185 8.97904 32.0549 9.4404H19.2929C19.3403 9.98714 19.4973 10.5193 19.7547 11.0063C20.0122 11.4933 20.3651 11.9257 20.7933 12.2785C21.6859 13.0201 22.8262 13.412 23.9951 13.3787C24.7029 13.4037 25.4078 13.2782 26.0615 13.0108C26.7153 12.7434 27.3023 12.3404 27.7826 11.8294L31.4786 11.8608C30.7914 13.1954 29.7419 14.3175 28.4459 15.1031C27.1429 15.9142 25.6295 16.3399 24.0867 16.329C23.0178 16.3492 21.9561 16.154 20.9671 15.7555C19.9782 15.357 19.083 14.7635 18.3369 14.0119Z" fill="#060B13"/>
<path d="M34.2456 16.0871V8.00396C34.2456 5.52216 34.8555 3.65556 36.0753 2.40418C36.6985 1.77636 37.4497 1.28468 38.2797 0.961236C39.1096 0.637791 39.9997 0.489863 40.892 0.527115H41.2076V3.47744H40.892C38.5316 3.47744 37.3531 4.98628 37.3561 8.00396V16.0871H34.2456Z" fill="#060B13"/>
<path d="M50.4571 3.27934C49.7773 3.25827 49.1003 3.37726 48.4701 3.62863C47.8398 3.87999 47.2702 4.25816 46.7978 4.73878C45.8582 5.70736 45.3341 6.99368 45.3341 8.33126C45.3341 9.66883 45.8582 10.9552 46.7978 11.9237C47.2635 12.4026 47.8258 12.7808 48.4489 13.0344C49.0718 13.288 49.7418 13.4114 50.4161 13.3966C51.0834 13.4131 51.7469 13.2921 52.3638 13.0416C52.9806 12.791 53.5371 12.4163 53.9975 11.9417C54.921 10.965 55.4341 9.68175 55.4341 8.34922C55.4341 7.0167 54.921 5.73343 53.9975 4.75674C53.5381 4.28064 52.9818 3.90468 52.3649 3.65327C51.7478 3.40184 51.0838 3.28056 50.4161 3.2973L50.4571 3.27934ZM44.6571 2.65963C45.9911 1.34616 47.7479 0.527564 49.6279 0.343352C51.5081 0.15914 53.395 0.620719 54.9671 1.64942C56.5393 2.67812 57.6995 4.21026 58.2498 5.98468C58.8001 7.75911 58.7066 9.66598 57.9851 11.3803C57.2637 13.0946 55.9589 14.5102 54.2933 15.3858C52.6277 16.2614 50.7043 16.5428 48.851 16.1822C46.9977 15.8214 45.3291 14.8408 44.1298 13.4076C42.9305 11.9743 42.2746 10.1771 42.2739 8.32227C42.257 7.26876 42.4597 6.22298 42.8695 5.24919C43.2793 4.27539 43.8877 3.39416 44.6571 2.65963Z" fill="#060B13"/>
<path d="M74.6041 16.0871H71.0682L66.9926 10.5367L62.917 16.0871H59.3491L65.2225 8.02646L59.8203 0.581055H63.3287L66.9606 5.54316L70.6566 0.581055H74.165L68.7629 8.02646L74.6041 16.0871Z" fill="#060B13"/>
<path d="M78.1951 16.037V10.8504H75.3638V9.05414H78.1951V8.50179L78.2592 6.61124C78.4299 4.72819 79.0307 3.24929 80.0614 2.17455C81.1518 1.07563 82.6187 0.413138 84.1782 0.31543V2.21047C83.1447 2.36628 82.1944 2.85805 81.4794 3.60703C80.7355 4.44391 80.306 5.50579 80.2627 6.61574L80.1987 8.50628V9.05863H85.1799V10.8549H80.217V16.0415L78.1951 16.037Z" fill="#060B13"/>
<path d="M90.4081 0.584961H88.3862V16.091H90.4081V0.584961Z" fill="#060B13"/>
<path d="M106.294 4.0068C105.735 3.43183 105.059 2.97755 104.311 2.67294C103.563 2.36831 102.758 2.22002 101.949 2.23751C101.135 2.22307 100.327 2.37264 99.5754 2.67698C98.8231 2.98131 98.1426 3.43391 97.5758 4.0068C96.4272 5.16756 95.7848 6.72203 95.7848 8.34023C95.7848 9.95843 96.4272 11.5129 97.5758 12.6737C98.1376 13.251 98.8147 13.7086 99.5647 14.0176C100.315 14.3267 101.122 14.4806 101.935 14.4699C102.742 14.485 103.543 14.336 104.289 14.0323C105.034 13.7286 105.708 13.2767 106.267 12.7051C107.396 11.5313 108.026 9.9776 108.026 8.3627C108.026 6.74779 107.396 5.19408 106.267 4.02027L106.294 4.0068ZM96.1532 2.65963C97.4872 1.34616 99.244 0.527564 101.124 0.343352C103.004 0.15914 104.891 0.620719 106.463 1.64942C108.035 2.67812 109.195 4.21026 109.746 5.98468C110.296 7.75911 110.203 9.66598 109.481 11.3803C108.76 13.0946 107.455 14.5102 105.789 15.3858C104.124 16.2614 102.2 16.5428 100.347 16.1822C98.4938 15.8214 96.8252 14.8408 95.6259 13.4076C94.4266 11.9743 93.7707 10.1771 93.77 8.32227C93.7531 7.26876 93.9558 6.22298 94.3656 5.24919C94.7754 4.27539 95.3838 3.39416 96.1532 2.65963Z" fill="#060B13"/>
<path d="M125.904 4.0068C125.344 3.43183 124.669 2.97755 123.921 2.67294C123.173 2.36831 122.368 2.22002 121.558 2.23751C120.745 2.22307 119.937 2.37264 119.185 2.67698C118.433 2.98131 117.752 3.43391 117.186 4.0068C116.037 5.16756 115.395 6.72203 115.395 8.34023C115.395 9.95843 116.037 11.5129 117.186 12.6737C117.747 13.2515 118.424 13.7092 119.174 14.0183C119.924 14.3275 120.731 14.4811 121.545 14.4699C122.351 14.4855 123.152 14.3367 123.897 14.0328C124.642 13.7291 125.314 13.277 125.872 12.7051C127.003 11.5318 127.633 9.97791 127.633 8.3627C127.633 6.74747 127.003 5.19356 125.872 4.02027L125.904 4.0068ZM115.768 2.65963C117.102 1.34616 118.858 0.527564 120.738 0.343352C122.618 0.15914 124.505 0.620719 126.078 1.64942C127.65 2.67812 128.81 4.21026 129.36 5.98468C129.91 7.75911 129.817 9.66598 129.096 11.3803C128.374 13.0946 127.069 14.5102 125.404 15.3858C123.738 16.2614 121.815 16.5428 119.961 16.1822C118.108 15.8214 116.44 14.8408 115.24 13.4076C114.041 11.9743 113.385 10.1771 113.384 8.32227C113.367 7.26872 113.57 6.22287 113.98 5.24904C114.389 4.2752 114.998 3.394 115.768 2.65963Z" fill="#060B13"/>
<path d="M132.065 16.0866V8.04847C132.065 5.5487 132.649 3.66714 133.817 2.40379C134.418 1.77121 135.15 1.27443 135.966 0.94796C136.78 0.621487 137.658 0.473149 138.538 0.513248C138.691 0.510891 138.843 0.519897 138.995 0.540191V2.43522C138.845 2.41087 138.691 2.40034 138.538 2.40379C137.92 2.37875 137.304 2.4947 136.74 2.74247C136.176 2.99025 135.678 3.36313 135.286 3.83179C134.487 4.78081 134.087 6.18637 134.087 8.04847V16.0866H132.065Z" fill="#060B13"/>
<path d="M137.266 14.3618H137.61C137.726 14.3737 137.843 14.3485 137.943 14.29C137.972 14.2677 137.995 14.2389 138.01 14.2061C138.026 14.1733 138.032 14.1374 138.03 14.1014C138.031 14.0534 138.016 14.0065 137.988 13.9666C137.959 13.9262 137.918 13.8952 137.87 13.8769C137.778 13.8542 137.682 13.8452 137.587 13.85H137.266V14.3618ZM136.983 15.3273V13.6164H137.587C137.74 13.6082 137.895 13.6234 138.044 13.6613C138.132 13.693 138.21 13.7512 138.263 13.8274C138.316 13.9013 138.344 13.9889 138.346 14.0789C138.347 14.1398 138.335 14.2004 138.311 14.2566C138.288 14.313 138.252 14.3641 138.208 14.4068C138.11 14.5008 137.98 14.5552 137.843 14.5594C137.899 14.5808 137.95 14.6129 137.994 14.6537C138.091 14.7569 138.176 14.8698 138.25 14.9905L138.464 15.3273H138.122L137.966 15.0578C137.894 14.9074 137.792 14.7718 137.668 14.6582C137.603 14.6138 137.524 14.5932 137.444 14.5998H137.266V15.3273H136.983ZM137.696 13.118C137.463 13.1202 137.235 13.1805 137.032 13.2931C136.819 13.404 136.642 13.5742 136.526 13.7825C136.406 13.9844 136.342 14.2137 136.342 14.4472C136.343 14.6786 136.404 14.906 136.52 15.1073C136.638 15.3144 136.812 15.4842 137.024 15.5968C137.227 15.7144 137.46 15.7765 137.696 15.7765C137.932 15.7765 138.164 15.7144 138.368 15.5968C138.58 15.4842 138.755 15.3144 138.872 15.1073C138.984 14.9048 139.044 14.678 139.046 14.4472C139.046 14.2142 138.984 13.9852 138.867 13.7825C138.75 13.5751 138.572 13.4053 138.359 13.2931C138.166 13.1848 137.947 13.1247 137.723 13.118H137.696ZM137.696 12.8575C137.975 12.8585 138.248 12.928 138.492 13.0596C138.747 13.1951 138.959 13.3991 139.1 13.6479C139.239 13.8922 139.314 14.1672 139.315 14.4472C139.316 14.7246 139.242 14.9974 139.1 15.2376C138.963 15.488 138.755 15.694 138.502 15.8302C138.255 15.9656 137.978 16.0366 137.696 16.0366C137.414 16.0366 137.138 15.9656 136.891 15.8302C136.643 15.6889 136.44 15.482 136.306 15.233C136.163 14.9913 136.088 14.7173 136.088 14.4382C136.088 14.1592 136.163 13.885 136.306 13.6434C136.447 13.3946 136.659 13.1906 136.914 13.0551C137.163 12.9228 137.442 12.8548 137.723 12.8575H137.696Z" fill="#060B13"/>
</g>
</g>
<defs>
<clipPath id="clip0_680_574">
<rect width="138.667" height="16" fill="white" transform="translate(0.666992 0.333008)"/>
</clipPath>
</defs>
</svg>
